# Blender 5.0.1
# www.blender.org
mtllib building.mtl
o Cube
v 3.593783 15.433292 -4.050176
v 3.593783 0.001402 -4.050176
v 3.593783 15.433292 4.050176
v 3.593783 0.001402 4.050176
v -3.593783 15.433292 -4.050176
v -3.593783 0.001402 -4.050176
v -3.593783 15.433292 4.050176
v -3.593783 0.001402 4.050176
vn -0.0000 1.0000 -0.0000
vn -0.0000 -0.0000 1.0000
vn -1.0000 -0.0000 -0.0000
vn -0.0000 -1.0000 -0.0000
vn 1.0000 -0.0000 -0.0000
vn -0.0000 -0.0000 -1.0000
vt 0.833333 0.000000
vt 0.833333 0.321429
vt 0.738095 0.321429
vt 0.738095 0.000000
vt 0.304000 0.999165
vt 0.304000 -0.000000
vt 0.834857 -0.000000
vt 0.834857 0.999165
vt 0.229524 0.995165
vt 0.229524 -0.008000
vt 0.761714 -0.008000
vt 0.761714 0.995165
vt 0.833333 0.321429
vt 0.833333 0.642857
vt 0.738095 0.642857
vt 0.738095 0.321429
vt 0.305714 0.997165
vt 0.305714 0.000000
vt 0.835238 0.000000
vt 0.835238 0.997165
vt 0.137677 0.998575
vt 0.137677 0.002856
vt 0.667749 0.002856
vt 0.667749 0.998575
s 0
usemtl Material.001
f 1/1/1 5/2/1 7/3/1 3/4/1
f 4/5/2 3/6/2 7/7/2 8/8/2
f 8/9/3 7/10/3 5/11/3 6/12/3
f 6/13/4 2/14/4 4/15/4 8/16/4
f 2/17/5 1/18/5 3/19/5 4/20/5
f 6/21/6 5/22/6 1/23/6 2/24/6
