# Blender 5.0.1
# www.blender.org
mtllib facade.mtl
o Cube
v -0.000000 -0.107393 -2.373392
v 0.797238 -0.107393 -2.373392
v -3.188951 -0.107393 -2.373392
v -3.188951 10.009172 -2.373392
v 1.594475 -0.107393 -2.373392
v 2.391713 -0.107393 -2.373392
v 3.188951 -0.107393 -2.373392
v 3.188951 10.009172 -2.373392
v -3.188951 -0.107393 0.815559
v -3.188951 10.009172 0.815559
v 3.188951 -0.107393 0.815559
v 3.188951 10.009172 0.815559
v -0.797238 -0.107393 -2.373392
v -1.594476 -0.107393 -2.373392
v -2.391713 -0.107393 -2.373392
v -2.391713 10.009172 -2.373392
v -1.594475 10.009172 -2.373392
v -0.797238 10.009172 -2.373392
v 0.000000 10.009172 -2.373392
v 0.797238 10.009172 -2.373392
v 1.594476 10.009172 -2.373392
v 2.391713 10.009172 -2.373392
v -2.391713 10.009172 0.815559
v -1.594475 10.009172 0.815559
v -0.797238 10.009172 0.815559
v 0.000000 10.009172 0.815559
v 0.797238 10.009172 0.815559
v 1.594476 10.009172 0.815559
v 2.391713 10.009172 0.815559
v 2.391713 -0.107393 0.815559
v 1.594475 -0.107393 0.815559
v 0.797238 -0.107393 0.815559
v -0.000000 -0.107393 0.815559
v -0.797238 -0.107393 0.815559
v -1.594476 -0.107393 0.815559
v -2.391713 -0.107393 0.815559
v -3.188951 9.120941 -2.373392
v 3.188951 9.120941 -2.373392
v 3.188951 9.120941 0.815559
v -3.188951 9.120941 0.815559
v -2.391713 9.120941 -2.373392
v -1.594475 9.120941 -2.373392
v -0.797238 9.120941 -2.373392
v 0.000000 9.120941 -2.373392
v 0.797238 9.120941 -2.373392
v 1.594476 9.120941 -2.373392
v 2.391713 9.120941 -2.373392
v -3.188951 0.750885 -2.373392
v 3.188951 0.750885 -2.373392
v 3.188951 0.750885 0.815559
v -3.188951 0.750885 0.815559
v -2.391713 0.750885 -2.373392
v -1.594476 0.750885 -2.373392
v -0.797238 0.750885 -2.373392
v -0.000000 0.750885 -2.373392
v 0.797238 0.750885 -2.373392
v 1.594475 0.750885 -2.373392
v 2.391713 0.750885 -2.373392
v -3.188951 3.175931 -2.373392
v 3.188951 3.175931 -2.373392
v 3.188951 3.175931 0.815559
v -3.188951 3.175931 0.815559
v -2.391713 3.175931 -2.373392
v -1.594476 3.175931 -2.373392
v -0.797238 3.175931 -2.373392
v -0.000000 3.175931 -2.373392
v 0.797238 3.175931 -2.373392
v 1.594476 3.175931 -2.373392
v 2.391713 3.175931 -2.373392
v -3.188951 7.139271 -2.373392
v -3.188951 5.157600 -2.373392
v 3.188951 7.139271 -2.373392
v 3.188951 5.157600 -2.373392
v 3.188951 7.139271 0.815559
v 3.188951 5.157600 0.815559
v -3.188951 7.139271 0.815559
v -3.188951 5.157600 0.815559
v -2.391713 7.139271 -2.373392
v -2.391713 5.157600 -2.373392
v -1.594476 5.157600 -2.373392
v -0.797238 7.139271 -2.373392
v -0.797238 5.157600 -2.373392
v 0.000000 7.139271 -2.373392
v 0.000000 5.157600 -2.373392
v 0.797238 7.139271 -2.373392
v 0.797238 5.157600 -2.373392
v 1.594476 5.157600 -2.373392
v 2.391713 7.139271 -2.373392
v 2.391713 5.157600 -2.373392
v -1.594476 -0.107393 -2.687269
v -2.391713 -0.107393 -2.687269
v -3.188951 0.750885 -2.687269
v -3.188951 -0.107393 -2.687269
v -0.797238 -0.107393 -2.687269
v -0.000000 -0.107393 -2.687269
v -2.391713 0.750885 -2.687269
v -1.594476 0.750885 -2.687269
v -0.797238 0.750885 -2.687269
v -0.000000 0.750885 -2.687269
v -2.391713 3.175931 -2.031650
v -2.391713 0.750885 -2.031650
v -1.594476 3.175931 -2.031650
v -1.594476 0.750885 -2.031650
v -0.797238 3.175931 -2.031650
v -0.797238 0.750885 -2.031650
v -3.188951 10.009172 -3.275593
v -2.391713 10.009172 -3.275593
v 2.391713 10.009172 -3.275593
v 3.188951 10.009172 -3.275593
v -1.594475 10.009172 -3.275593
v -0.797238 10.009172 -3.275593
v 0.000000 10.009172 -3.275593
v 0.797238 10.009172 -3.275593
v 1.594476 10.009172 -3.275593
v -3.188951 9.120941 -3.275593
v 3.188951 9.120941 -3.275593
v -2.391713 9.120941 -3.275593
v -1.594475 9.120941 -3.275593
v -0.797238 9.120941 -3.275593
v 0.000000 9.120941 -3.275593
v 0.797238 9.120941 -3.275593
v 1.594476 9.120941 -3.275593
v 2.391713 9.120941 -3.275593
v -3.188951 8.130106 -2.373392
v 3.188951 8.130106 -2.373392
v 3.188951 8.130106 0.815559
v -3.188951 8.130106 0.815559
v -2.391713 8.130106 -2.373392
v -1.594475 8.130106 -2.373392
v -0.797238 8.130106 -2.373392
v 0.000000 8.130106 -2.373392
v 0.797238 8.130106 -2.373392
v 1.594476 8.130106 -2.373392
v 2.391713 8.130106 -2.373392
v -3.188951 4.166765 -2.373392
v 3.188951 4.166765 -2.373392
v 3.188951 4.166765 0.815559
v -3.188951 4.166765 0.815559
v -2.391713 4.166765 -2.373392
v -1.594476 4.166765 -2.373392
v -0.797238 4.166765 -2.373392
v -0.000000 4.166765 -2.373392
v 0.797238 4.166765 -2.373392
v 2.391713 4.166765 -2.373392
v -3.188951 1.963408 -2.373392
v 3.188951 1.963408 -2.373392
v 3.188951 1.963408 0.815559
v -3.188951 1.963408 0.815559
v -2.391713 1.963408 -2.373392
v -0.797238 1.963408 -2.373392
v -0.000000 1.963408 -2.373392
v 0.797238 1.963408 -2.373392
v 1.594476 1.963408 -2.373392
v 2.391713 1.963408 -2.373392
v -2.391713 1.963408 -2.031650
v -1.594476 1.963408 -2.031650
v -0.797238 1.963408 -2.031650
v -3.188951 6.148436 -2.373392
v 3.188951 6.148436 -2.373392
v 3.188951 6.148436 0.815559
v -3.188951 6.148436 0.815559
v -2.391713 6.148436 -2.373392
v -1.594476 6.148436 -2.373392
v -0.797238 6.148436 -2.373392
v 0.000000 6.148436 -2.373392
v 0.797238 6.148436 -2.373392
v 1.594476 6.148436 -2.373392
v 2.391713 6.148436 -2.373392
v 0.797238 4.166765 -2.162350
v 0.797238 3.175931 -2.162350
v 1.594476 4.166765 -2.162350
v 1.594476 3.175931 -2.162350
v 2.391713 4.166765 -2.162350
v 2.391713 3.175931 -2.162350
v -2.391713 8.130106 -2.162350
v -2.391713 7.139271 -2.162350
v -1.594475 8.130106 -2.162350
v -1.594475 7.139271 -2.162350
v -0.797238 8.130106 -2.162350
v -0.797238 7.139271 -2.162350
v 0.797238 8.130106 -2.162350
v 0.797238 7.139271 -2.162350
v 1.594476 8.130106 -2.162350
v 1.594476 7.139271 -2.162350
v 2.391713 8.130106 -2.162350
v 2.391713 7.139271 -2.162350
v 0.797238 5.157600 -2.162350
v 1.594476 5.157600 -2.162350
v 2.391713 5.157600 -2.162350
v -2.391713 6.148436 -2.162350
v -1.594476 6.148436 -2.162350
v -0.797238 6.148436 -2.162350
v 0.797238 6.148436 -2.162350
v 1.594476 6.148436 -2.162350
v 2.391713 6.148436 -2.162350
vn -1.0000 -0.0000 -0.0000
vn -0.0000 -1.0000 -0.0000
vn -0.0000 1.0000 -0.0000
vn 1.0000 -0.0000 -0.0000
vn -0.0000 -0.0000 -1.0000
vt 0.603050 0.125000
vt 0.625000 0.125000
vt 0.625000 0.250000
vt 0.603050 0.250000
vt 0.603050 0.406250
vt 0.603050 0.375000
vt 0.250000 0.500000
vt 0.281250 0.500000
vt 0.281250 0.625000
vt 0.250000 0.625000
vt 0.218750 0.500000
vt 0.218750 0.625000
vt 0.187500 0.500000
vt 0.187500 0.625000
vt 0.156250 0.500000
vt 0.156250 0.625000
vt 0.843750 0.500000
vt 0.875000 0.500000
vt 0.875000 0.625000
vt 0.843750 0.625000
vt 0.343750 0.500000
vt 0.375000 0.500000
vt 0.375000 0.625000
vt 0.343750 0.625000
vt 0.603050 0.500000
vt 0.625000 0.500000
vt 0.625000 0.625000
vt 0.603050 0.625000
vt 0.125000 0.500000
vt 0.125000 0.625000
vt 0.312500 0.500000
vt 0.312500 0.625000
vt 0.656250 0.500000
vt 0.656250 0.625000
vt 0.687500 0.500000
vt 0.687500 0.625000
vt 0.718750 0.500000
vt 0.718750 0.625000
vt 0.750000 0.500000
vt 0.750000 0.625000
vt 0.781250 0.500000
vt 0.781250 0.625000
vt 0.812500 0.500000
vt 0.812500 0.625000
vt 0.603050 0.437500
vt 0.603050 0.468750
vt 0.578565 0.437500
vt 0.578565 0.468750
vt 0.578565 0.406250
vt 0.578565 0.375000
vt 0.578565 0.343750
vt 0.603050 0.343750
vt 0.578565 0.312500
vt 0.603050 0.312500
vt 0.578565 0.281250
vt 0.603050 0.281250
vt 0.578565 0.250000
vt 0.578565 0.500000
vt 0.578565 0.625000
vt 0.578565 0.125000
vt 0.375000 0.125000
vt 0.396210 0.125000
vt 0.396210 0.250000
vt 0.375000 0.250000
vt 0.375000 0.468750
vt 0.396210 0.468750
vt 0.396210 0.500000
vt 0.396210 0.625000
vt 0.396210 0.312500
vt 0.396210 0.343750
vt 0.396210 0.375000
vt 0.375000 0.375000
vt 0.396210 0.281250
vt 0.396210 0.406250
vt 0.375000 0.406250
vt 0.396210 0.437500
vt 0.375000 0.437500
vt 0.426174 0.125000
vt 0.456137 0.125000
vt 0.456137 0.250000
vt 0.426174 0.250000
vt 0.426174 0.468750
vt 0.456137 0.468750
vt 0.456137 0.500000
vt 0.426174 0.500000
vt 0.456137 0.625000
vt 0.426174 0.625000
vt 0.456137 0.281250
vt 0.426174 0.281250
vt 0.456137 0.312500
vt 0.426174 0.343750
vt 0.456137 0.343750
vt 0.456137 0.375000
vt 0.426174 0.375000
vt 0.456137 0.406250
vt 0.426174 0.406250
vt 0.456137 0.437500
vt 0.426174 0.437500
vt 0.480623 0.125000
vt 0.505108 0.125000
vt 0.505108 0.250000
vt 0.480623 0.250000
vt 0.529594 0.125000
vt 0.554079 0.125000
vt 0.554079 0.250000
vt 0.529594 0.250000
vt 0.480623 0.468750
vt 0.505108 0.468750
vt 0.505108 0.500000
vt 0.480623 0.500000
vt 0.529594 0.468750
vt 0.554079 0.468750
vt 0.554079 0.500000
vt 0.529594 0.500000
vt 0.505108 0.625000
vt 0.480623 0.625000
vt 0.554079 0.625000
vt 0.529594 0.625000
vt 0.505108 0.281250
vt 0.480623 0.281250
vt 0.554079 0.281250
vt 0.529594 0.281250
vt 0.505108 0.312500
vt 0.480623 0.312500
vt 0.554079 0.343750
vt 0.529594 0.343750
vt 0.505108 0.343750
vt 0.480623 0.343750
vt 0.505108 0.375000
vt 0.480623 0.375000
vt 0.554079 0.375000
vt 0.529594 0.375000
vt 0.505108 0.406250
vt 0.480623 0.406250
vt 0.554079 0.406250
vt 0.529594 0.406250
vt 0.529594 0.437500
vt 0.375000 0.281250
vt 0.375000 0.312500
vt 0.375000 0.343750
vt 0.426174 0.312500
vt 0.625000 0.468750
vt 0.625000 0.281250
vt 0.625000 0.312500
vt 0.625000 0.343750
vt 0.625000 0.375000
vt 0.625000 0.406250
vt 0.625000 0.437500
vt 0.505108 0.437500
vt 0.529594 0.312500
vt 0.554079 0.312500
vt 0.480623 0.437500
vt 0.554079 0.437500
s 0
usemtl Material.001
f 40/1/1 10/2/1 4/3/1 37/4/1
f 45/5/2 44/6/2 120/6/2 121/5/2
f 1/7/2 2/8/2 32/9/2 33/10/2
f 13/11/2 1/7/2 33/10/2 34/12/2
f 14/13/2 13/11/2 34/12/2 35/14/2
f 15/15/2 14/13/2 35/14/2 36/16/2
f 16/17/3 4/18/3 10/19/3 23/20/3
f 6/21/2 7/22/2 11/23/2 30/24/2
f 38/25/4 8/26/4 12/27/4 39/28/4
f 3/29/2 15/15/2 36/16/2 9/30/2
f 2/8/2 5/31/2 31/32/2 32/9/2
f 5/31/2 6/21/2 30/24/2 31/32/2
f 8/26/3 22/33/3 29/34/3 12/27/3
f 22/33/3 21/35/3 28/36/3 29/34/3
f 21/35/3 20/37/3 27/38/3 28/36/3
f 20/37/3 19/39/3 26/40/3 27/38/3
f 19/39/3 18/41/3 25/42/3 26/40/3
f 18/41/3 17/43/3 24/44/3 25/42/3
f 17/43/3 16/17/3 23/20/3 24/44/3
f 4/18/3 16/17/3 107/17/3 106/18/3
f 18/41/3 19/39/3 112/39/3 111/41/3
f 46/45/2 45/5/2 121/5/2 122/45/2
f 17/43/3 18/41/3 111/41/3 110/43/3
f 38/25/2 47/46/2 123/46/2 116/25/2
f 47/46/2 46/45/2 122/45/2 123/46/2
f 16/17/3 17/43/3 110/43/3 107/17/3
f 133/47/5 46/45/5 47/46/5 134/48/5
f 132/49/5 45/5/5 46/45/5 133/47/5
f 131/50/5 44/6/5 45/5/5 132/49/5
f 130/51/5 43/52/5 44/6/5 131/50/5
f 129/53/5 42/54/5 43/52/5 130/51/5
f 128/55/5 41/56/5 42/54/5 129/53/5
f 124/57/5 37/4/5 41/56/5 128/55/5
f 125/58/4 38/25/4 39/28/4 126/59/4
f 134/48/5 47/46/5 38/25/5 125/58/5
f 127/60/1 40/1/1 37/4/1 124/57/1
f 9/61/1 51/62/1 48/63/1 3/64/1
f 6/65/5 58/66/5 49/67/5 7/22/5
f 7/22/4 49/67/4 50/68/4 11/23/4
f 53/69/3 54/70/3 98/70/3 97/69/3
f 55/71/4 1/72/4 95/72/4 99/71/4
f 1/7/2 13/11/2 94/11/2 95/7/2
f 52/73/3 53/69/3 97/69/3 96/73/3
f 1/72/5 55/71/5 56/74/5 2/75/5
f 2/75/5 56/74/5 57/76/5 5/77/5
f 5/77/5 57/76/5 58/66/5 6/65/5
f 148/78/1 62/79/1 59/80/1 145/81/1
f 154/82/5 69/83/5 60/84/5 146/85/5
f 146/85/4 60/84/4 61/86/4 147/87/4
f 145/81/5 59/80/5 63/88/5 149/89/5
f 63/88/2 64/90/2 102/90/2 100/88/2
f 54/70/3 53/69/3 103/69/3 105/70/3
f 150/91/5 65/92/5 66/93/5 151/94/5
f 151/94/5 66/93/5 67/95/5 152/96/5
f 152/96/5 67/95/5 68/97/5 153/98/5
f 153/98/5 68/97/5 69/83/5 154/82/5
f 138/99/1 77/100/1 71/101/1 135/102/1
f 161/103/1 76/104/1 70/105/1 158/106/1
f 144/107/5 89/108/5 73/109/5 136/110/5
f 168/111/5 88/112/5 72/113/5 159/114/5
f 136/110/4 73/109/4 75/115/4 137/116/4
f 159/114/4 72/113/4 74/117/4 160/118/4
f 135/102/5 71/101/5 79/119/5 139/120/5
f 158/106/5 70/105/5 78/121/5 162/122/5
f 139/120/5 79/119/5 80/123/5 140/124/5
f 81/125/1 164/126/1 192/126/1 180/125/1
f 140/124/5 80/123/5 82/127/5 141/128/5
f 134/48/1 88/112/1 186/112/1 185/48/1
f 141/128/5 82/127/5 84/129/5 142/130/5
f 164/126/5 81/125/5 83/131/5 165/132/5
f 142/130/5 84/129/5 86/133/5 143/134/5
f 165/132/5 83/131/5 85/135/5 166/136/5
f 130/51/1 81/125/1 180/125/1 179/51/1
f 133/47/2 134/48/2 185/48/2 183/47/2
f 167/137/3 166/136/3 193/136/3 194/137/3
f 144/107/1 69/83/1 174/83/1 173/107/1
f 93/64/5 92/63/5 96/73/5 91/138/5
f 91/138/5 96/73/5 97/69/5 90/139/5
f 90/139/5 97/69/5 98/70/5 94/140/5
f 94/140/5 98/70/5 99/71/5 95/72/5
f 3/64/1 48/63/1 92/63/1 93/64/1
f 54/70/3 55/71/3 99/71/3 98/70/3
f 15/15/2 3/29/2 93/29/2 91/15/2
f 48/63/3 52/73/3 96/73/3 92/63/3
f 14/13/2 15/15/2 91/15/2 90/13/2
f 13/11/2 14/13/2 90/13/2 94/11/2
f 155/89/5 100/88/5 102/90/5 156/141/5
f 156/141/5 102/90/5 104/92/5 157/91/5
f 150/91/1 54/70/1 105/70/1 157/91/1
f 64/90/2 65/92/2 104/92/2 102/90/2
f 149/89/4 63/88/4 100/88/4 155/89/4
f 53/69/3 52/73/3 101/73/3 103/69/3
f 123/46/5 108/142/5 109/26/5 116/25/5
f 115/4/5 106/3/5 107/143/5 117/56/5
f 117/56/5 107/143/5 110/144/5 118/54/5
f 118/54/5 110/144/5 111/145/5 119/52/5
f 119/52/5 111/145/5 112/146/5 120/6/5
f 120/6/5 112/146/5 113/147/5 121/5/5
f 121/5/5 113/147/5 114/148/5 122/45/5
f 122/45/5 114/148/5 108/142/5 123/46/5
f 19/39/3 20/37/3 113/37/3 112/39/3
f 44/6/2 43/52/2 119/52/2 120/6/2
f 20/37/3 21/35/3 114/35/3 113/37/3
f 37/4/1 4/3/1 106/3/1 115/4/1
f 43/52/2 42/54/2 118/54/2 119/52/2
f 21/35/3 22/33/3 108/33/3 114/35/3
f 8/26/4 38/25/4 116/25/4 109/26/4
f 42/54/2 41/56/2 117/56/2 118/54/2
f 41/56/2 37/4/2 115/4/2 117/56/2
f 22/33/3 8/26/3 109/26/3 108/33/3
f 76/104/1 127/60/1 124/57/1 70/105/1
f 88/112/5 134/48/5 125/58/5 72/113/5
f 72/113/4 125/58/4 126/59/4 74/117/4
f 70/105/5 124/57/5 128/55/5 78/121/5
f 162/122/4 78/121/4 176/121/4 190/122/4
f 132/49/2 133/47/2 183/47/2 181/49/2
f 81/125/5 130/51/5 131/50/5 83/131/5
f 83/131/5 131/50/5 132/49/5 85/135/5
f 87/149/2 89/108/2 189/108/2 188/149/2
f 168/111/3 167/137/3 194/137/3 195/111/3
f 88/112/1 168/111/1 195/111/1 186/112/1
f 67/95/4 143/134/4 169/134/4 170/95/4
f 66/93/5 142/130/5 143/134/5 67/95/5
f 65/92/5 141/128/5 142/130/5 66/93/5
f 64/90/5 140/124/5 141/128/5 65/92/5
f 63/88/5 139/120/5 140/124/5 64/90/5
f 59/80/5 135/102/5 139/120/5 63/88/5
f 60/84/4 136/110/4 137/116/4 61/86/4
f 69/83/5 144/107/5 136/110/5 60/84/5
f 62/79/1 138/99/1 135/102/1 59/80/1
f 52/73/4 149/89/4 155/89/4 101/73/4
f 65/92/1 150/91/1 157/91/1 104/92/1
f 103/69/5 156/141/5 157/91/5 105/70/5
f 101/73/5 155/89/5 156/141/5 103/69/5
f 57/76/5 153/98/5 154/82/5 58/66/5
f 56/74/5 152/96/5 153/98/5 57/76/5
f 55/71/5 151/94/5 152/96/5 56/74/5
f 54/70/5 150/91/5 151/94/5 55/71/5
f 48/63/5 145/81/5 149/89/5 52/73/5
f 49/67/4 146/85/4 147/87/4 50/68/4
f 58/66/5 154/82/5 146/85/5 49/67/5
f 51/62/1 148/78/1 145/81/1 48/63/1
f 87/149/5 167/137/5 168/111/5 89/108/5
f 86/133/5 166/136/5 167/137/5 87/149/5
f 84/129/5 165/132/5 166/136/5 86/133/5
f 82/127/5 164/126/5 165/132/5 84/129/5
f 80/123/5 163/150/5 164/126/5 82/127/5
f 79/119/5 162/122/5 163/150/5 80/123/5
f 71/101/5 158/106/5 162/122/5 79/119/5
f 73/109/4 159/114/4 160/118/4 75/115/4
f 89/108/5 168/111/5 159/114/5 73/109/5
f 77/100/1 161/103/1 158/106/1 71/101/1
f 190/122/5 176/121/5 178/151/5 191/150/5
f 191/150/5 178/151/5 180/125/5 192/126/5
f 169/134/5 187/133/5 188/149/5 171/152/5
f 193/136/5 182/135/5 184/153/5 194/137/5
f 171/152/5 188/149/5 189/108/5 173/107/5
f 194/137/5 184/153/5 186/112/5 195/111/5
f 176/121/5 175/55/5 177/53/5 178/151/5
f 178/151/5 177/53/5 179/51/5 180/125/5
f 182/135/5 181/49/5 183/47/5 184/153/5
f 184/153/5 183/47/5 185/48/5 186/112/5
f 172/97/5 171/152/5 173/107/5 174/83/5
f 170/95/5 169/134/5 171/152/5 172/97/5
f 68/97/3 67/95/3 170/95/3 172/97/3
f 143/134/4 86/133/4 187/133/4 169/134/4
f 69/83/3 68/97/3 172/97/3 174/83/3
f 128/55/2 129/53/2 177/53/2 175/55/2
f 164/126/3 163/150/3 191/150/3 192/126/3
f 166/136/4 85/135/4 182/135/4 193/136/4
f 129/53/2 130/51/2 179/51/2 177/53/2
f 89/108/1 144/107/1 173/107/1 189/108/1
f 163/150/3 162/122/3 190/122/3 191/150/3
f 78/121/4 128/55/4 175/55/4 176/121/4
f 86/133/2 87/149/2 188/149/2 187/133/2
f 85/135/4 132/49/4 181/49/4 182/135/4
